<svg xmlns="http://www.w3.org/2000/svg" viewBox="0 0 181.71 100.23" data-viseme="E">
  <style>
    .m-teeth{fill:#f0ffbb}
    .m-dark{fill:#1a0a2e}
    .m-tongue{fill:#d31818}
  </style>
  <path class="m-tongue" d="M154.18,69.57c-12.67-15.7-21.76-19.53-37.15-20.48-29.34-1.82-67.18,3.04-79.01,29.94,1.98,1.56,4.04,3.03,6.17,4.41,4,2.59,8.51,4.78,13.37,6.54-.23-.17-.45-.35-.67-.53-1.75-1.47-.29-16.13.43-22.55.12-1.06.53-6.6,6.23-5.7,5.47.87,11.01,7.09,15.4,18.11.83,1.92,1.53,3.87,2.04,5.75.73,2.29,1.41,4.71,2.04,7.31,0,0,.37,1.41.47,2.7,1.84.1,3.7.16,5.57.16,7.6,0,15.11-.82,22.29-2.36-.06-.38-.08-.8,0-1.31,1.6-30.52,21.74-43.91,21.93-31.61,0,0,4,21.39,4.1,21.91.11.53.19.93.27,1.26,5.75-3.25,10.84-7.08,15.01-11.39.03-.03.06-.06.09-.09.06-.06.12-.13.18-.2.46-.49.9-.99,1.35-1.48,0-.14-.03-.28-.12-.38Z"/>
  <g>
    <path class="m-teeth" d="M79.75,92.31v.02l-.52.04c-.99-2.68-1.88-5.38-2.91-8.04-.95-2.83-2-5.37-4.11-8.31-1.98-3.06-4.58-5.98-8.21-8.69-.2-.18-.4-.35-.6-.54l.02.09s-.03-.02-.04-.03l3.68,18.95c.2,1.02.25,3.08.56,4.81.12,1.07.37,2.03.94,2.51,3.61.77,7.34,1.34,11.17,1.69.12.01.24.02.35.03,0-.04-.01-.09-.02-.13-.15-.78-.26-1.58-.3-2.39Z"/>
    <polygon class="m-teeth" points="37.49 23.72 36.64 22.87 35.79 23.72 35.85 23.78 36.64 24.57 36.92 24.3 37.49 23.72"/>
    <polygon class="m-teeth" points="38.33 34.72 37.48 35.57 37.55 35.64 38.33 36.42 38.62 36.14 39.18 35.57 38.33 34.72"/>
    <path class="m-teeth" d="M37.5,18c1.79,2.97,3.35,6.53,4.63,10.14,3.07,8.63,4.5,17.49,3.45,18.87l-3.58.82h0s0,0,0,0l3.18,4.79.03-.06,11.27-21.24,65.57-5.9c1.14-1.25,3.15-3.64,3.92-2.99l3.78,3.17c2.99,2.51,5.92,5.66,8.37,8.84.2.26.41.53.6.79l4.62,8.31c.01-.06.02-.12.04-.19,2.6-13.18,3.7-23.91,3.76-35.64,0-.22,0-.45,0-.67-38.27,2.74-73.27,5.73-109.61,10.96Z"/>
    <polygon class="m-teeth" points="39.17 38.95 39.24 39.02 40.02 39.8 40.31 39.52 40.87 38.95 40.02 38.1 39.17 38.95"/>
    <polygon class="m-teeth" points="34.95 19.48 34.1 20.33 34.16 20.39 34.95 21.18 35.23 20.9 35.8 20.33 34.95 19.48"/>
    <rect class="m-teeth" x="62.75" y="87.54" width="1.2" height="1.2" transform="translate(-43.77 70.62) rotate(-45.01)"/>
    <rect class="m-teeth" x="61.62" y="82.45" width="1.2" height="1.2" transform="translate(-40.5 68.35) rotate(-45.02)"/>
    <rect class="m-teeth" x="60.92" y="76.16" width="1.2" height="1.2" transform="translate(-36.26 65.96) rotate(-44.99)"/>
    <polygon class="m-teeth" points="59.75 79.25 59.37 79.6 60.25 80.41 60.52 80.12 61.07 79.54 60.32 78.72 59.75 79.25"/>
    <path class="m-teeth" d="M129.03,60.33l-.12-.74c-.06.02-.12.06-.18.08l-.02-.11c-.81.35-1.54.95-2.21,1.73-.14.17-.29.33-.43.52,0,0-.01.02-.02.03-.59.77-1.12,1.68-1.59,2.72-.23.5-.44.99-.63,1.48-.03.07-.05.13-.08.2-2.35,6.14-1.62,11.63-2.8,18.65-.3,1.77-.72,3.64-1.35,5.63-.03.08-.05.17-.08.25,4.78-1.44,9.35-3.21,13.62-5.29l-.04-.22-4.09-24.94Z"/>
    <path class="m-teeth" d="M38.96,30.66l.17-.18-.75-.82-.07.07-1.31-1.99c.08-1.1-.17,2.1-.2,2.66l1.09,1,.88.81,1.27,1.17.92-.74-1.37-1.29-.63-.68Z"/>
    <polygon class="m-teeth" points="36.79 30.41 36.79 30.4 36.79 30.4 36.79 30.41"/>
  </g>
  <path class="m-dark" d="M181.23,0l-71.82,2.22-20.67,1.47C58.89,7.87,30.05,11.71,0,18.43c3.15,28.8,17.92,53.98,41.47,69.21,13.11,8.49,30.18,12.59,47.61,12.59,25.35,0,51.46-8.67,67.29-25.13C175.46,55.25,183.9,28.16,181.23,0ZM152.94,71.44c-.06.06-.12.13-.18.2-.03.03-.06.06-.09.09-4.17,4.32-9.26,8.14-15.01,11.39-.07-.32-.16-.72-.27-1.26-.1-.52-4.1-21.91-4.1-21.91-.19-12.3-20.33,1.09-21.93,31.61-.07.51-.05.93,0,1.31-7.18,1.54-14.69,2.36-22.29,2.36-1.88,0-3.73-.06-5.57-.16-.11-1.29-.47-2.7-.47-2.7-.63-2.6-1.32-5.02-2.04-7.31-.52-1.88-1.21-3.83-2.04-5.75-4.39-11.01-9.93-17.24-15.4-18.11-5.7-.91-6.11,4.64-6.23,5.7-.72,6.42-2.18,21.08-.43,22.55.22.18.44.36.67.53-4.87-1.77-9.37-3.95-13.37-6.54-2.13-1.38-4.18-2.85-6.17-4.41,11.83-26.91,49.67-31.76,79.01-29.94,15.39.95,24.48,4.78,37.15,20.48.09.11.12.24.12.38-.45.49-.89,1-1.35,1.48ZM119.61,90.52c.62-2,1.05-3.87,1.35-5.63,1.18-7.02.45-12.51,2.8-18.65.03-.07.05-.13.08-.2.19-.49.4-.98.63-1.48.47-1.04,1-1.95,1.59-2.72,0,0,.01-.02.02-.03.14-.18.28-.35.43-.52.67-.78,1.4-1.38,2.21-1.73l.02.11c.06-.03.12-.06.18-.08l.12.74,4.09,24.94.04.22c-4.27,2.07-8.84,3.84-13.62,5.29.03-.09.05-.17.08-.25ZM60.67,76.76l.85-.85.85.85-.85.85-.85-.85ZM61.07,79.54l-.55.58-.27.29-.88-.81.38-.35.57-.53.75.82ZM62.22,82.2l.85.85-.85.85-.85-.85.85-.85ZM63.35,87.29l.85.85-.85.85-.85-.85.85-.85ZM67.61,90.61c-.31-1.73-.36-3.79-.56-4.81l-3.68-18.95s.03.02.04.03l-.02-.09c.21.18.4.36.6.54,3.63,2.7,6.23,5.63,8.21,8.69,2.12,2.94,3.17,5.49,4.11,8.31,1.03,2.66,1.92,5.36,2.91,8.04l.52-.04v-.02c.04.82.15,1.61.3,2.39,0,.04.01.09.02.13-.12-.01-.24-.02-.35-.03-3.83-.35-7.57-.92-11.17-1.69-.57-.48-.81-1.44-.94-2.51ZM39.58,31.35l1.37,1.29-.92.74-1.27-1.17-.88-.81-1.09-1s0,0,0,0h0s0,0,0,0c.03-.56.28-3.76.2-2.66l1.31,1.99.07-.07.75.82-.17.18.63.68ZM40.02,38.1l.85.85-.57.57-.28.28-.78-.78-.07-.07.85-.85ZM38.62,36.14l-.28.28-.78-.78-.07-.07.85-.85.85.85-.57.57ZM36.92,24.3l-.27.28-.79-.79-.06-.06.85-.85.85.85-.57.57ZM35.23,20.9l-.28.28-.79-.79-.06-.06.85-.85.85.85-.57.57ZM147.11,7.71c-.06,11.73-1.16,22.46-3.76,35.64-.01.06-.02.12-.04.19l-4.62-8.31c-.2-.26-.4-.53-.6-.79-2.45-3.18-5.37-6.33-8.37-8.84l-3.78-3.17c-.77-.65-2.78,1.74-3.92,2.99l-65.57,5.9-11.27,21.24-.03.06-3.18-4.79h.02s3.58-.82,3.58-.82c1.06-1.38-.38-10.24-3.45-18.87-1.28-3.6-2.84-7.17-4.63-10.14,36.34-5.23,71.34-8.22,109.61-10.96,0,.23,0,.45,0,.67Z"/>
</svg>
