<svg xmlns="http://www.w3.org/2000/svg" viewBox="0 0 181.71 100.23" data-viseme="F">
  <style>
    .m-teeth{fill:#f0ffbb}
    .m-dark{fill:#1a0a2e}
    .m-tongue{fill:#d31818}
  </style>
  <path class="m-dark" d="M123.31,85.68c-7.71,4.74-17.41,7.58-27.95,7.58-7.36,0-14.31-1.39-20.46-3.84.03,1.38-.44,2.76-1.38,3.74,6.59,2.62,14.01,4.1,21.85,4.1,10.76,0,20.72-2.78,28.84-7.49-.83-1.15-1.13-2.67-.89-4.09Z"/>
  <path class="m-dark" d="M97,27.98c-20.73,0-37.6,13.54-37.6,30.19s16.87,30.19,37.6,30.19,37.6-13.54,37.6-30.19-16.87-30.19-37.6-30.19Z"/>
  <g>
    <path class="m-teeth" d="M66.56,66.54c-.2-.18-.4-.35-.6-.54l.02.09s-.03-.02-.04-.03l.67,3.44c2.45,4.13,6.21,7.68,10.84,10.32-.68-1.49-1.51-2.98-2.67-4.59-1.98-3.06-4.58-5.98-8.21-8.69Z"/>
    <path class="m-teeth" d="M129.05,60.51c-.14.17-.29.33-.43.52,0,0-.01.02-.02.03-.59.77-1.12,1.68-1.59,2.72-.23.5-.44.99-.63,1.48-.03.07-.05.13-.08.2-1.06,2.77-1.49,5.41-1.76,8.11,3.69-4.12,5.93-9.1,6.16-14.49-.59.36-1.14.84-1.65,1.44Z"/>
  </g>
  <path class="m-tongue" d="M98.82,65.43c-8.39,0-15.98,1.78-21.47,4.66,2.01,3.29,3.89,7.4,5.56,12.28,4.3,1.58,9.1,2.47,14.16,2.47,6.7,0,12.93-1.55,18.17-4.22.88-4.23,2.11-8.01,3.55-11.26-5.33-2.44-12.31-3.92-19.96-3.92Z"/>
</svg>
